<svg width="512" height="512" viewBox="0 0 512 512" fill="none" xmlns="http://www.w3.org/2000/svg">
  <rect width="512" height="512" rx="112" fill="#F5F1E9"/>
  <path d="M115 299C112 183 177 96 292 96C383 96 429 166 420 254C416 306 390 364 343 398L167 398C132 369 118 338 115 299Z" fill="#182131"/>
  <path d="M267 132C322 132 362 172 362 226V284C362 338 324 374 269 374C217 374 177 338 177 284V228C177 175 216 132 267 132Z" fill="#F5F1E9"/>
  <path d="M177 238C197 208 218 188 249 177C284 164 319 169 357 195V141C333 112 298 96 258 96C185 96 129 151 119 229L177 238Z" fill="#182131"/>
  <path d="M177 238C207 224 243 222 273 229C304 237 330 250 362 239" stroke="#182131" stroke-width="18" stroke-linecap="round"/>
  <path d="M308 263C321 247 345 248 353 266C342 281 325 282 308 263Z" fill="#182131"/>
  <circle cx="337" cy="264" r="5" fill="#F5F1E9"/>
  <path d="M270 312C287 320 302 320 316 311" stroke="#182131" stroke-width="8" stroke-linecap="round"/>
  <path d="M250 245C261 236 276 236 286 245" stroke="#182131" stroke-width="7" stroke-linecap="round"/>
  <path d="M173 374C201 405 238 420 286 420C340 420 382 396 408 361" stroke="#182131" stroke-width="17" stroke-linecap="round"/>
  <circle cx="177" cy="322" r="43" fill="#94A89C" stroke="#182131" stroke-width="12"/>
  <circle cx="177" cy="322" r="22" stroke="#182131" stroke-width="9"/>
  <path d="M125 322H229M177 270V374" stroke="#182131" stroke-width="7" stroke-linecap="round"/>
  <path d="M177 251L184 269L203 276L184 283L177 302L170 283L151 276L170 269L177 251Z" fill="#F5F1E9"/>
  <circle cx="397" cy="148" r="10" fill="#94A89C"/>
</svg>
