<svg width="512" height="512" viewBox="0 0 512 512" fill="none" xmlns="http://www.w3.org/2000/svg">
  <rect width="512" height="512" rx="112" fill="#182131"/>
  <path d="M124 350V222C124 142 181 94 256 94C331 94 388 142 388 222V350C388 396 358 422 316 422H196C154 422 124 396 124 350Z" fill="#94A89C"/>
  <path d="M174 193C174 142 208 113 256 113C304 113 338 142 338 193V289C338 342 305 376 256 376C207 376 174 342 174 289V193Z" fill="#F5F1E9"/>
  <path d="M174 212C206 191 229 183 256 183C285 183 310 193 338 214V159C317 117 287 94 256 94C211 94 178 120 154 159L174 212Z" fill="#182131"/>
  <path d="M164 274C144 261 134 239 138 216C161 227 173 242 178 267" fill="#182131"/>
  <path d="M348 274C368 261 378 239 374 216C351 227 339 242 334 267" fill="#182131"/>
  <path d="M207 263C217 249 235 249 245 263C234 276 219 276 207 263Z" fill="#182131"/>
  <path d="M267 263C277 249 295 249 305 263C294 276 279 276 267 263Z" fill="#182131"/>
  <path d="M231 314C246 325 266 325 281 314" stroke="#182131" stroke-width="8" stroke-linecap="round"/>
  <path d="M256 224L263 242L281 249L263 256L256 274L249 256L231 249L249 242L256 224Z" fill="#94A89C" stroke="#182131" stroke-width="5" stroke-linejoin="round"/>
  <path d="M147 391C178 406 214 415 256 415C298 415 334 406 365 391" stroke="#F5F1E9" stroke-width="8" stroke-linecap="round"/>
  <circle cx="110" cy="157" r="12" fill="#F5F1E9"/>
  <circle cx="402" cy="157" r="12" fill="#F5F1E9"/>
</svg>
