<svg width="512" height="512" viewBox="0 0 512 512" fill="none" xmlns="http://www.w3.org/2000/svg">
  <rect width="512" height="512" rx="112" fill="#94A89C"/>
  <path d="M112 337C112 193 176 101 256 101C336 101 400 193 400 337C400 385 365 415 321 415H191C147 415 112 385 112 337Z" fill="#182131"/>
  <path d="M177 180C177 144 211 121 256 121C301 121 335 144 335 180V292C335 342 303 371 256 371C209 371 177 342 177 292V180Z" fill="#F5F1E9"/>
  <g stroke="#182131" stroke-width="8" stroke-linecap="round">
    <path d="M187 186H325"/><path d="M187 222H325"/><path d="M187 258H325"/><path d="M187 294H325"/>
    <path d="M221 145V330"/><path d="M256 135V339"/><path d="M291 145V330"/>
  </g>
  <path d="M221 222H256V258H221V222Z" fill="#94A89C"/>
  <path d="M256 258H291V294H256V258Z" fill="#94A89C"/>
  <path d="M238 310C250 317 264 317 276 310" stroke="#182131" stroke-width="7" stroke-linecap="round"/>
  <path d="M232 199C239 192 248 192 255 199" stroke="#182131" stroke-width="7" stroke-linecap="round"/>
  <path d="M267 199C274 192 283 192 290 199" stroke="#182131" stroke-width="7" stroke-linecap="round"/>
  <circle cx="118" cy="156" r="17" fill="#F5F1E9"/>
  <circle cx="394" cy="156" r="17" fill="#F5F1E9"/>
  <path d="M137 386C166 402 205 411 256 411C307 411 346 402 375 386" stroke="#F5F1E9" stroke-width="8" stroke-linecap="round"/>
</svg>
